<svg xmlns="http://www.w3.org/2000/svg" width="1024" height="1024" viewBox="0 0 1024 1024"><path fill="none" d="M0 0h1024v1024H0z"/><path fill="#1de5a2" d="M254.241 372.048c4.958-1.202 37.465-20.596 44.72-24.669l152.651-85.074 37.098-20.792c5.884-3.319 17.109-10.27 23.059-12.172 5.84 1.565 25.089 12.901 31.418 16.389l74.279 41.205 103.595 56.443 32.694 17.669c5.324 2.887 13.458 7.018 18.328 10.291l.676 1.689c.585 17.231.137 36.119.268 53.492.065 8.522.727 24.259.192 32.105-6.566 6.484-30.744 18.493-39.618 23.01-9.894 5.036-36.836 21.297-46.776 23-3.416-.774-16.429-8.123-20.336-10.237l-40.38-22.049-73.153-40.179c-13.402-7.337-30.336-15.817-43.096-23.926-5.581 1.769-17.105 9.659-22.713 12.63a4074 4074 0 0 0-99.961 55.414c-5.726 3.227-48.796 28.358-52.287 28.521-.133 1.158-.567 2.825.487 3.41 11.004 6.104 27.38 14.806 38.101 20.569l155.117 82.753 49.215 25.648c4.257 2.245 16.983 8.601 20.282 10.836-.886-14.308.071-38.886.141-53.971l.211-27.071c.041-4.046-.115-11.784.581-15.489 2.509-3.05 10.413-6.212 14.165-8.04a1183 1183 0 0 0 18.66-9.388l27.942-13.999c9.408-4.814 18.39-9.7 28.185-13.792 9.478 4.759 83.232 42.886 84.113 45.398.144.411.16.67.216 1.083-.781 7.248-.304 22.898-.301 31.007l.063 60.234c-1.281 1.781-2.753 3.639-4.633 4.836-26.448 16.846-54.833 31.131-81.565 47.466-1.076.124-1.714-.031-2.709-.607-10.138-5.867-20.414-11.568-30.658-17.236l-50.505-27.466-.031 58.977c-.003 10.649.294 23.09-.216 33.516-2.958 2.257-8.882 5.268-12.309 7.122l-21.413 11.598c-17.619 9.613-35.971 20.549-53.534 29.866-5.325-2.15-13.658-7.223-18.945-10.225l-29.626-16.648-107.17-60.212-74.554-41.597c-5.502-3.063-28.42-15.343-31.397-18.144-.508-8.713-.253-19.629-.174-28.451l.355-43.785c.021-6.825.295-15.401-.154-21.993 2.041-1.805 5.195-3.317 7.632-4.534 24.543-12.248 48.149-26.22 72.433-38.987-5.088-2.926-12.4-6.423-17.748-9.247l-39.693-21.088c-6.639-3.533-15.282-7.825-21.435-11.76-.441-10.603-1.4-88.005.213-93.349"/><path fill="#29282e" d="M254.241 372.048c4.958-1.202 37.465-20.596 44.72-24.669l152.651-85.074 37.098-20.792c5.884-3.319 17.109-10.27 23.059-12.172 5.84 1.565 25.089 12.901 31.418 16.389l74.279 41.205 103.595 56.443 32.694 17.669c5.324 2.887 13.458 7.018 18.328 10.291-9.022 3.47-22.859 11.452-31.602 16.143l-52.269 27.816a10622 10622 0 0 1-113.508-64.117l-42.123-23.97c-6.374-3.612-15.1-8.947-21.402-12.022l-113.71 64.807a2467 2467 0 0 1-44.266 25.131c-5.497 3.104-13.366 8.064-18.763 10.76a4049 4049 0 0 1-54.524-29.669c-4.481-2.491-22.469-13.298-25.675-14.169"/><path fill="#29282e" d="M252.812 645.242c-.508-8.713-.253-19.629-.174-28.451l.355-43.785c.021-6.825.295-15.401-.154-21.993.756 1.958.472 2.227 2.175 3.212 9.999 5.782 20.446 11.272 30.539 16.861l63.84 35.411c55.18 30.574 110.95 62.635 166.368 92.465 7.862-4.761 83.308-48.55 85.775-48.152.165.027.314.119.471.179l-.031 58.977c-.003 10.649.294 23.09-.216 33.516-2.958 2.257-8.882 5.268-12.309 7.122l-21.413 11.598c-17.619 9.613-35.971 20.549-53.534 29.866-5.325-2.15-13.658-7.223-18.945-10.225l-29.626-16.648-107.17-60.212-74.554-41.597c-5.502-3.063-28.42-15.343-31.397-18.144"/><path fill="#29282e" d="M336.641 418.703c7.439-4.527 16.293-9.178 23.96-13.538a3140 3140 0 0 1 58.918-33.248c8.239-4.61 16.216-9.589 24.403-14.279l67.121-38.369c.115 11.21-.379 23.738-.468 35.148-.136 17.423.177 36.58-.715 53.826-5.581 1.769-17.105 9.659-22.713 12.63a4074 4074 0 0 0-99.961 55.414c-5.726 3.227-48.796 28.358-52.287 28.521.053-4.029.136-8.133.36-12.157 1.378-24.679 1.305-49.238 1.382-73.948"/><path fill="#29282e" d="M772.315 552.755c-.781 7.248-.304 22.898-.301 31.007l.063 60.234c-1.281 1.781-2.753 3.639-4.633 4.836-26.448 16.846-54.833 31.131-81.565 47.466.512-3.355.57-24.298.685-29.088q1.082-34.381 1.264-68.778c12.338-5.554 31.438-16.66 43.994-23.347l25.081-13.396c4.277-2.304 11.657-6.136 15.412-8.934"/><path fill="#29282e" d="M772.759 373.027c.585 17.231.137 36.119.268 53.492.065 8.522.727 24.259.192 32.105-6.566 6.484-30.744 18.493-39.618 23.01-9.894 5.036-36.836 21.297-46.776 23 .69-3.277.714-22.468.79-26.731q.787-29.874.922-59.759c9.888-3.974 31.386-16.316 41.512-21.678l26.229-13.895c4.478-2.383 12.823-6.612 16.481-9.544"/><path fill="#29282e" d="M599.034 551.493c4.983 3.891 25.836 13.781 32.31 17.046l56.869 29.315c-18.335 11.202-38.181 22.272-56.922 33.005l-20.365 11.521c-3.19 1.802-9.52 6.39-12.825 5.644-.886-14.308.071-38.886.141-53.971l.211-27.071c.041-4.046-.115-11.784.581-15.489"/><path fill="#1de5a2" d="M445.373 476.102c5.316 1.401 50.393 27.588 56.058 31.63l.088 6.425c-15.595 8.751-30.536 17.438-46.316 26.045-2.857 1.62-7.165 5.178-9.786 2.51-.864-2.386-.561-5.166-.51-7.778 4.379-3.159 11.466-6.931 16.304-9.627a2237 2237 0 0 0 25.029-14.026c-13.506-7.614-28.19-15.609-41.296-23.738-.295-4.031-.206-7.465.429-11.441"/><path fill="#1de5a2" d="M499.557 542.708c18.696.307 37.397.351 56.095.132.073 2.494.076 3.783-.183 6.255a2760 2760 0 0 0-55.941.276z"/><path fill="#e22f28" d="M573.136 541.031a9.099 9.099 0 1 1 3.987 17.756 9.099 9.099 0 0 1-3.987-17.756"/></svg>